<?xml version="1.0" standalone="no"?>
<!DOCTYPE svg PUBLIC "-//W3C//DTD SVG 20010904//EN"
 "http://www.w3.org/TR/2001/REC-SVG-20010904/DTD/svg10.dtd">
<svg version="1.0" xmlns="http://www.w3.org/2000/svg"
 width="864.000000pt" height="864.000000pt" viewBox="0 0 864.000000 864.000000"
 preserveAspectRatio="xMidYMid meet">
<metadata>
Created by potrace 1.11, written by Peter Selinger 2001-2013
</metadata>
<g transform="translate(0.000000,864.000000) scale(0.100000,-0.100000)"
fill="#000000" stroke="none">
<path d="M4030 8633 c-159 -14 -273 -27 -380 -44 -69 -12 -138 -23 -155 -25
-80 -13 -406 -98 -530 -140 -360 -119 -713 -290 -1025 -497 -656 -435 -1173
-1027 -1516 -1737 -136 -279 -265 -653 -325 -935 -7 -33 -14 -64 -15 -70 -1
-5 -13 -80 -27 -165 -25 -149 -30 -190 -47 -365 -8 -86 -5 -657 5 -740 5 -45
27 -211 41 -305 9 -62 45 -233 70 -335 317 -1280 1214 -2353 2424 -2897 80
-36 186 -80 235 -98 50 -18 99 -36 110 -41 82 -35 374 -115 561 -154 144 -29
361 -61 499 -72 158 -13 666 -9 795 5 202 23 492 73 590 102 19 6 46 12 60 15
14 2 77 20 140 39 551 163 1035 417 1484 776 187 150 391 344 536 510 36 41
67 77 70 80 3 3 37 46 76 95 485 617 782 1308 893 2081 30 208 36 312 36 614
0 326 -4 383 -51 700 -3 19 -17 89 -30 155 -14 66 -27 131 -30 145 -12 58 -78
284 -118 400 -386 1123 -1237 2051 -2329 2538 -72 33 -172 74 -222 92 -49 18
-99 36 -110 41 -106 44 -483 144 -659 173 -282 48 -470 63 -771 63 -137 0
-266 -2 -285 -4z"/>
</g>
</svg>
